# xmcd
#
# Track frame offsets:
#	150
#	11137
#	23325
#	37955
#	51857
#	65537
#	80212
#	94942
#	108865
#	123687
#	136575
#	150770
#	165555
#	177740
#	191297
#	204432
#	218445
#	229837
#	241035
#
# Disc length: 3390 seconds
#
# Revision: 1
# Processed by: cddbd v1.5.2PL0 Copyright (c) Steve Scherf et al.
# Submitted via: audiograbber 1.83.01
#
DISCID=ec0d3c13
DTITLE=Frankie 'Half-Pint' Jaxon - 1927-1940 - The Remaining Titles
DYEAR=1989
DGENRE=Hokum
TTITLE0=She's Got 'It'
TTITLE1=I'm Gonna Dance Wit' de Guy Wot Brung Me
TTITLE2=Let's Knock a Jug
TTITLE3=Can't You Wait (Till You Get Home)
TTITLE4=Corinne Blues
TTITLE5=Operation Blues
TTITLE6=Take It Easy
TTITLE7=You Got To Wet It
TTITLE8=Down Home in Kentucky
TTITLE9=Scuddlin'
TTITLE10=Chocolate to the Bone
TTITLE11=Mama Don't Allow It
TTITLE12=Spank It
TTITLE13=The Mortgage Blues - Part 1
TTITLE14=The Mortgage Blues - Part 2
TTITLE15=When a Woman Gets the Blues
TTITLE16=Let Me Ride Your Train
TTITLE17=Be Your Natural Self
TTITLE18=You Can't Tell
EXTD=
EXTT0=
EXTT1=
EXTT2=
EXTT3=
EXTT4=
EXTT5=
EXTT6=
EXTT7=
EXTT8=
EXTT9=
EXTT10=
EXTT11=
EXTT12=
EXTT13=
EXTT14=
EXTT15=
EXTT16=
EXTT17=
EXTT18=
PLAYORDER=
